<svg width="140" height="40" fill="none" xmlns="http://www.w3.org/2000/svg"><path d="M51.462 26.142c-1.728 0-3.078-.42-4.05-1.26-.972-.853-1.488-2.059-1.548-3.619-.012-.348-.018-.9-.018-1.655 0-.756.006-1.309.018-1.657.06-1.524.582-2.7 1.566-3.527.996-.829 2.34-1.242 4.032-1.242 1.14 0 2.13.185 2.97.557.852.372 1.5.846 1.944 1.422.456.577.696 1.17.72 1.783a.341.341 0 0 1-.126.27.366.366 0 0 1-.27.108h-2.628a.649.649 0 0 1-.288-.055.42.42 0 0 1-.18-.197 2.293 2.293 0 0 0-.738-.9c-.336-.265-.804-.397-1.404-.397-1.428 0-2.178.756-2.25 2.268-.012.337-.018.858-.018 1.567 0 .695.006 1.218.018 1.566.072 1.584.84 2.375 2.304 2.375.708 0 1.272-.18 1.692-.54.432-.372.648-.936.648-1.692v-.341h-1.692a.439.439 0 0 1-.324-.127.502.502 0 0 1-.126-.341v-1.332c0-.132.042-.24.126-.324a.41.41 0 0 1 .324-.145H56.7a.41.41 0 0 1 .324.145.439.439 0 0 1 .126.323v2.052c0 1.02-.234 1.902-.702 2.646-.468.732-1.134 1.296-1.998 1.692-.852.384-1.848.576-2.988.576Zm11.983 0c-1.488 0-2.634-.354-3.438-1.063-.804-.707-1.242-1.704-1.314-2.988a12.258 12.258 0 0 1-.018-.81c0-.383.006-.653.018-.81.072-1.271.522-2.262 1.35-2.97.828-.72 1.962-1.08 3.402-1.08 1.452 0 2.592.36 3.42 1.08.828.708 1.278 1.698 1.35 2.97.012.157.018.427.018.81 0 .385-.006.655-.018.81-.072 1.284-.51 2.28-1.314 2.988-.804.709-1.956 1.063-3.456 1.063Zm0-2.197c.528 0 .918-.155 1.17-.468.252-.323.396-.816.432-1.476.012-.12.018-.36.018-.72s-.006-.6-.018-.72c-.036-.648-.186-1.134-.45-1.457-.252-.325-.636-.486-1.152-.486-.996 0-1.524.648-1.584 1.944l-.018.72.018.72c.024.66.162 1.152.414 1.476.264.311.654.467 1.17.467Z" fill="#000"/><path d="M75.385 26.142c-1.716 0-3.06-.415-4.032-1.242-.96-.84-1.47-2.052-1.53-3.636a48.41 48.41 0 0 1-.018-1.584c0-.744.006-1.285.018-1.62.06-1.56.582-2.76 1.566-3.6.984-.853 2.316-1.279 3.996-1.279 1.056 0 2.004.18 2.844.54.84.348 1.5.852 1.98 1.512.492.649.744 1.41.756 2.287v.035c0 .096-.042.18-.126.253a.382.382 0 0 1-.252.09h-2.43c-.156 0-.276-.03-.36-.09-.084-.073-.156-.198-.216-.378-.168-.613-.432-1.038-.792-1.279-.36-.252-.834-.377-1.422-.377-1.416 0-2.148.792-2.196 2.376a44.56 44.56 0 0 0-.018 1.494c0 .672.006 1.182.018 1.53.048 1.584.78 2.375 2.196 2.375.588 0 1.068-.125 1.44-.377.372-.265.63-.69.774-1.279.048-.18.114-.3.198-.36.084-.072.21-.108.378-.108h2.43c.108 0 .198.037.27.108.084.072.12.162.108.27-.012.877-.264 1.645-.756 2.305-.48.648-1.14 1.151-1.98 1.511-.84.349-1.788.523-2.844.523Zm11.703 0c-1.488 0-2.634-.354-3.438-1.063-.804-.707-1.242-1.704-1.314-2.988a12.258 12.258 0 0 1-.018-.81c0-.383.006-.653.018-.81.072-1.271.522-2.262 1.35-2.97.828-.72 1.962-1.08 3.402-1.08 1.452 0 2.592.36 3.42 1.08.828.708 1.278 1.698 1.35 2.97.012.157.018.427.018.81 0 .385-.006.655-.018.81-.072 1.284-.51 2.28-1.314 2.988-.804.709-1.956 1.063-3.456 1.063Zm0-2.197c.528 0 .918-.155 1.17-.468.252-.323.396-.816.432-1.476.012-.12.018-.36.018-.72s-.006-.6-.018-.72c-.036-.648-.186-1.134-.45-1.457-.252-.325-.636-.486-1.152-.486-.996 0-1.524.648-1.584 1.944l-.018.72.018.72c.024.66.162 1.152.414 1.476.264.311.654.467 1.17.467Zm7.026 2.017a.439.439 0 0 1-.324-.127.439.439 0 0 1-.126-.323v-8.46c0-.133.042-.24.126-.325a.439.439 0 0 1 .324-.125h2.07a.41.41 0 0 1 .324.143.392.392 0 0 1 .144.306v.72c.66-.78 1.548-1.17 2.664-1.17h.792c.132 0 .24.043.324.127a.439.439 0 0 1 .126.323v1.855a.48.48 0 0 1-.126.324.439.439 0 0 1-.324.125h-1.746c-.492 0-.876.139-1.152.415-.264.264-.396.642-.396 1.134v4.608a.41.41 0 0 1-.144.323.439.439 0 0 1-.324.127h-2.232Zm12.064.18c-1.488 0-2.634-.354-3.438-1.063-.804-.707-1.242-1.704-1.314-2.988a12.258 12.258 0 0 1-.018-.81c0-.383.006-.653.018-.81.072-1.271.522-2.262 1.35-2.97.828-.72 1.962-1.08 3.402-1.08 1.452 0 2.592.36 3.42 1.08.828.708 1.278 1.698 1.35 2.97.012.157.018.427.018.81 0 .385-.006.655-.018.81-.072 1.284-.51 2.28-1.314 2.988-.804.709-1.956 1.063-3.456 1.063Zm0-2.197c.528 0 .918-.155 1.17-.468.252-.323.396-.816.432-1.476.012-.12.018-.36.018-.72s-.006-.6-.018-.72c-.036-.648-.186-1.134-.45-1.457-.252-.325-.636-.486-1.152-.486-.996 0-1.524.648-1.584 1.944l-.018.72.018.72c.024.66.162 1.152.414 1.476.264.311.654.467 1.17.467Zm7.025 2.017a.439.439 0 0 1-.324-.127.439.439 0 0 1-.126-.323v-8.46c0-.133.042-.24.126-.325a.439.439 0 0 1 .324-.125h2.07c.132 0 .24.041.324.125a.41.41 0 0 1 .144.325v.683a3.545 3.545 0 0 1 1.242-.953c.516-.24 1.098-.36 1.746-.36 1.056 0 1.914.36 2.574 1.08.66.707.99 1.704.99 2.988v5.022a.48.48 0 0 1-.126.323.439.439 0 0 1-.324.127h-2.268a.48.48 0 0 1-.324-.127.48.48 0 0 1-.126-.323v-4.915c0-.564-.138-.995-.414-1.296-.276-.311-.672-.467-1.188-.467-.504 0-.9.155-1.188.468-.288.3-.432.732-.432 1.296v4.914a.48.48 0 0 1-.126.323.439.439 0 0 1-.324.127h-2.25Zm13.925.18a4.17 4.17 0 0 1-1.746-.36 3.187 3.187 0 0 1-1.224-1.009 2.51 2.51 0 0 1-.432-1.421c0-.829.336-1.494 1.008-1.998.684-.505 1.62-.852 2.808-1.044l2.25-.342v-.253c0-.456-.096-.791-.288-1.008-.192-.216-.516-.323-.972-.323-.276 0-.504.047-.684.143-.18.096-.366.229-.558.396-.168.145-.294.24-.378.289-.036.096-.102.143-.198.143h-1.962a.454.454 0 0 1-.306-.108.364.364 0 0 1-.09-.288c.012-.323.168-.683.468-1.08.312-.396.78-.738 1.404-1.026.636-.288 1.416-.431 2.34-.431 1.476 0 2.568.33 3.276.99.708.648 1.062 1.524 1.062 2.628v5.472a.48.48 0 0 1-.126.323.439.439 0 0 1-.324.127h-2.088a.48.48 0 0 1-.324-.127.48.48 0 0 1-.126-.323v-.63c-.264.371-.636.677-1.116.917-.468.229-1.026.343-1.674.343Zm.846-2.052c.552 0 .996-.18 1.332-.54.348-.36.522-.889.522-1.585v-.252l-1.53.27c-1.08.192-1.62.57-1.62 1.134 0 .3.126.54.378.72.252.169.558.253.918.253ZM14.22 4.989c1.425-.5 2.991.174 3.497 1.504.388 1.018.041 2.125-.78 2.812l.443 1.211.707.816a.738.738 0 0 0 .651.245 8.649 8.649 0 0 1 1.961-.017.735.735 0 0 0 .592-.2l.51-.494.375-1.094a1.717 1.717 0 0 1-.238-1.573 1.739 1.739 0 0 1 2.307-1.036 1.732 1.732 0 0 1 1.008 2.059c-.15.53-.529.928-.995 1.125l-.416 1.212.094.669c.033.23.17.43.369.55.67.407 1.285.904 1.825 1.478a.769.769 0 0 0 .713.224l1.34-.269 1.513-.84a2.142 2.142 0 0 1 1.106-1.851 2.163 2.163 0 0 1 2.964.882c.509.97.19 2.19-.733 2.787-.72.466-1.6.449-2.278.051l-1.522.844-.85.903a.953.953 0 0 0-.223.906l.001.005c.15.553.24 1.108.277 1.659a.955.955 0 0 0 .498.78l1.11.598 2.2.415a1.74 1.74 0 0 1 1.467-.399 1.728 1.728 0 0 1 1.358 2.129 1.744 1.744 0 0 1-1.899 1.28 1.733 1.733 0 0 1-1.314-.9l-2.214-.417-1.365.166a.723.723 0 0 0-.574.419 8.693 8.693 0 0 1-1.669 2.47.715.715 0 0 0-.175.676l.34 1.31.837 1.31c.922-.138 1.88.26 2.413 1.092a2.407 2.407 0 0 1-.723 3.319 2.449 2.449 0 0 1-3.355-.697 2.402 2.402 0 0 1-.102-2.482l-.89-1.39-1.093-.898a.597.597 0 0 0-.58-.098 8.656 8.656 0 0 1-4.359.38.594.594 0 0 0-.487.136l-.587.508-.436 1.072c.295.456.37 1.042.15 1.583a1.74 1.74 0 0 1-2.361.908 1.731 1.731 0 0 1-.891-2.111c.179-.522.579-.898 1.056-1.069l.483-1.188-.09-1.043a8.664 8.664 0 0 1-2.282-2.069l-1.49.147-1.396.688c.009.934-.473 1.822-1.319 2.252-1.195.607-2.663.07-3.278-1.2-.615-1.27-.146-2.792 1.05-3.399.893-.454 1.94-.268 2.668.387l1.316-.649.913-.977a.252.252 0 0 0 .06-.238 8.51 8.51 0 0 1 .044-4.607.249.249 0 0 0-.048-.23l-.788-.938-1.698-.889a1.74 1.74 0 0 1-1.51-.05 1.722 1.722 0 0 1-.673-2.428 1.75 1.75 0 0 1 2.24-.653c.516.25.849.717.947 1.234l1.698.888 1.208.113a.252.252 0 0 0 .22-.092 8.601 8.601 0 0 1 1.941-1.76.734.734 0 0 0 .333-.6l.013-1.094-.474-1.29c-1.027-.074-1.956-.694-2.324-1.661-.506-1.33.239-2.813 1.664-3.312Z" fill="#EC5863"/><path d="M25.99 18.477c-.917-3.403-4.434-5.423-7.856-4.511-3.421.912-5.452 4.41-4.535 7.813.917 3.402 4.434 5.422 7.855 4.51 3.422-.912 5.453-4.41 4.536-7.813Z" fill="#F58A97"/><path d="M20.948 24.41c-3.1.827-6.28-.753-7.53-3.59.035.32.095.64.18.959.918 3.402 4.435 5.422 7.856 4.51 3.422-.912 5.453-4.41 4.536-7.813a6.411 6.411 0 0 0-.325-.92c.342 3.079-1.616 6.029-4.717 6.855Z" fill="#F07281"/><path d="M11.324 33.496a1.828 1.828 0 0 0-2.237-1.285 1.815 1.815 0 0 0-1.292 2.225 1.828 1.828 0 0 0 2.238 1.285 1.815 1.815 0 0 0 1.291-2.225ZM34.11 27.938a1.207 1.207 0 0 0-2.33.621 1.207 1.207 0 0 0 2.33-.621ZM30.843 6.002a1.778 1.778 0 0 0-2.177-1.25 1.766 1.766 0 0 0-1.256 2.165 1.778 1.778 0 0 0 2.176 1.25 1.766 1.766 0 0 0 1.257-2.165ZM20.195 22.048a1.658 1.658 0 0 0-2.029-1.165 1.647 1.647 0 0 0-1.171 2.018 1.658 1.658 0 0 0 2.029 1.165 1.647 1.647 0 0 0 1.171-2.018ZM24.31 19.582a1.128 1.128 0 0 0-2.178.58 1.128 1.128 0 0 0 2.179-.58ZM19.958 17.096a.947.947 0 0 0-1.83.488.947.947 0 0 0 1.83-.488Z" fill="#EB5569"/></svg>